<?xml version="1.0" encoding="UTF-8" standalone="no"?>
<svg
   xmlns:dc="http://purl.org/dc/elements/1.1/"
   xmlns:cc="http://creativecommons.org/ns#"
   xmlns:rdf="http://www.w3.org/1999/02/22-rdf-syntax-ns#"
   xmlns:svg="http://www.w3.org/2000/svg"
   xmlns="http://www.w3.org/2000/svg"
   xmlns:sodipodi="http://sodipodi.sourceforge.net/DTD/sodipodi-0.dtd"
   xmlns:inkscape="http://www.inkscape.org/namespaces/inkscape"
   enable-background="new 0 0 32 32"
   height="32px"
   id="svg2"
   version="1.1"
   viewBox="0 0 32 32"
   width="32px"
   xml:space="preserve"
   sodipodi:docname="SurvUp-Run.svg"
   inkscape:version="0.92.3 (2405546, 2018-03-11)"><metadata
     id="metadata96"><rdf:RDF><cc:Work
         rdf:about=""><dc:format>image/svg+xml</dc:format><dc:type
           rdf:resource="http://purl.org/dc/dcmitype/StillImage" /></cc:Work></rdf:RDF></metadata><defs
     id="defs94" /><sodipodi:namedview
     pagecolor="#ffffff"
     bordercolor="#666666"
     borderopacity="1"
     objecttolerance="10"
     gridtolerance="10"
     guidetolerance="10"
     inkscape:pageopacity="0"
     inkscape:pageshadow="2"
     inkscape:window-width="1920"
     inkscape:window-height="1019"
     id="namedview92"
     showgrid="false"
     inkscape:zoom="7.375"
     inkscape:cx="16"
     inkscape:cy="16"
     inkscape:window-x="0"
     inkscape:window-y="0"
     inkscape:window-maximized="1"
     inkscape:current-layer="svg2" /><g
     id="background"><rect
       fill="none"
       height="32"
       width="32"
       id="rect83" /></g><g
     id="server_x5F_run"><path
       d="M30,17.349V12h-2v-2h2V2H2v8h2v2H2v8h2v2H2v8h15.349c1.545,1.248,3.51,1.999,5.651,2c4.971-0.002,8.998-4.029,9-9   C31.999,20.858,31.248,18.894,30,17.349z M14.059,22H6v-2h8.522C14.297,20.638,14.135,21.306,14.059,22z M26,12H6v-2h20V12z M4,6h4   v2H4V6z M4,16h4v2H4V16z M8,28H4v-2h4V28z M23,29.883c-3.801-0.009-6.876-3.084-6.885-6.883c0.009-3.801,3.084-6.876,6.885-6.885   c3.799,0.009,6.874,3.084,6.883,6.885C29.874,26.799,26.799,29.874,23,29.883z"
       id="path86" /><polygon
       points="22,19 22,27 26,23  "
       id="polygon88" /></g><path
     style="fill:#ffffff;stroke-width:0.13559322"
     d="m 21.081694,31.713751 c -1.034569,-0.2248 -2.278998,-0.77209 -3.127842,-1.375595 l -0.637731,-0.45341 H 9.6885691 2.0610169 V 25.952542 22.020339 H 3.0779661 4.0949153 V 21.00339 19.986441 H 3.0779661 2.0610169 V 16.054237 12.122034 H 3.0779661 4.0949153 V 11.037288 9.9525424 H 3.0779661 2.0610169 V 6.020339 2.0881356 H 16.027119 29.99322 V 6.020339 9.9525424 h -1.016949 -1.016949 v 1.0847456 1.084746 h 1.016949 1.016949 v 2.653535 2.653536 l 0.415946,0.604557 c 0.977786,1.421161 1.477252,3.111194 1.480355,5.009036 0.0025,1.501853 -0.237635,2.492754 -0.967868,3.99459 -1.102488,2.267435 -3.534457,4.159427 -6.013178,4.678054 -1.163161,0.243371 -2.702376,0.242731 -3.826781,-0.0016 z m 3.768272,-2.045328 c 3.969383,-1.165916 6.063012,-5.324426 4.608212,-9.15315 -1.071325,-2.819495 -3.988272,-4.660882 -6.990381,-4.412832 -3.123632,0.258089 -5.601836,2.460032 -6.261005,5.563049 -0.342247,1.61112 -0.0292,3.430918 0.847542,4.926972 0.798922,1.363256 2.50784,2.646521 4.125327,3.097798 0.88385,0.246594 2.795143,0.235222 3.670305,-0.02184 z M 8.0271186,27.037288 V 25.952542 H 5.9932203 3.959322 v 1.084746 1.084746 h 2.0338983 2.0338983 z m 6.2147084,-5.728813 c 0.08275,-0.391526 0.189814,-0.849153 0.237923,-1.01695 l 0.08747,-0.305084 H 10.280221 5.9932203 v 1.016949 1.016949 h 4.0490777 4.049078 z M 8.0271186,17.00339 V 15.918644 H 5.9932203 3.959322 v 1.084746 1.084746 H 5.9932203 8.0271186 Z M 26.061017,11.037288 V 9.9525424 H 16.027119 5.9932203 v 1.0847456 1.084746 H 16.027119 26.061017 Z M 8.0271186,6.9694915 V 5.8847458 H 5.9932203 3.959322 v 1.0847457 1.0847458 h 2.0338983 2.0338983 z"
     id="path6430"
     inkscape:connector-curvature="0" /><path
     style="fill:#ffffff;stroke-width:0.13559322"
     d="m 22.128814,23.005206 v -3.760895 l 1.898335,1.894703 1.898336,1.894702 -1.862621,1.866193 c -1.024441,1.026406 -1.878692,1.866193 -1.898336,1.866193 -0.01964,0 -0.03571,-1.692403 -0.03571,-3.760896 z"
     id="path6432"
     inkscape:connector-curvature="0" /></svg>