<?xml version="1.0" encoding="UTF-8" standalone="no"?>
<svg
   xmlns:dc="http://purl.org/dc/elements/1.1/"
   xmlns:cc="http://creativecommons.org/ns#"
   xmlns:rdf="http://www.w3.org/1999/02/22-rdf-syntax-ns#"
   xmlns:svg="http://www.w3.org/2000/svg"
   xmlns="http://www.w3.org/2000/svg"
   xmlns:sodipodi="http://sodipodi.sourceforge.net/DTD/sodipodi-0.dtd"
   xmlns:inkscape="http://www.inkscape.org/namespaces/inkscape"
   enable-background="new 0 0 32 32"
   height="32px"
   id="svg2"
   version="1.1"
   viewBox="0 0 32 32"
   width="32px"
   xml:space="preserve"
   sodipodi:docname="SurvUp.svg"
   inkscape:version="0.92.3 (2405546, 2018-03-11)"><metadata
     id="metadata169"><rdf:RDF><cc:Work
         rdf:about=""><dc:format>image/svg+xml</dc:format><dc:type
           rdf:resource="http://purl.org/dc/dcmitype/StillImage" /></cc:Work></rdf:RDF></metadata><defs
     id="defs167" /><sodipodi:namedview
     pagecolor="#ffffff"
     bordercolor="#666666"
     borderopacity="1"
     objecttolerance="10"
     gridtolerance="10"
     guidetolerance="10"
     inkscape:pageopacity="0"
     inkscape:pageshadow="2"
     inkscape:window-width="1920"
     inkscape:window-height="1019"
     id="namedview165"
     showgrid="false"
     inkscape:zoom="7.375"
     inkscape:cx="-4"
     inkscape:cy="16"
     inkscape:window-x="0"
     inkscape:window-y="0"
     inkscape:window-maximized="1"
     inkscape:current-layer="svg2" /><g
     id="background"><rect
       fill="none"
       height="32"
       width="32"
       id="rect158" /></g><g
     id="server"><path
       d="M30,10V2H2v8h2v2H2v8h2v2H2v8h28v-8h-2v-2h2v-8h-2v-2H30z M4,6h4v2H4V6z M4,16h4v2H4V16z M8,28H4v-2h4V28z M26,22H6v-2h20   V22z M26,12H6v-2h20V12z"
       id="path161" /></g><path
     style="fill:#ffffff;stroke-width:0.13559322"
     d="M 2.1288136,25.952542 V 22.020339 H 3.0779661 4.0271186 V 21.00339 19.986441 H 3.0779661 2.1288136 V 16.054237 12.122034 H 3.0779661 4.0271186 V 11.037288 9.9525424 H 3.0779661 2.1288136 V 6.020339 2.0881356 H 16.027119 29.925424 V 6.020339 9.9525424 h -1.022652 -1.022654 l 0.0396,1.0508476 0.0396,1.050847 0.983051,0.03984 0.983051,0.03984 v 3.926264 3.926263 h -1.016949 -1.01695 v 1.016949 1.016949 h 1.01695 1.016949 v 3.932203 3.932204 H 16.027119 2.1288136 Z m 5.9379069,1.050848 0.039602,-1.050848 H 5.9989239 3.8915254 v 0.99435 c 0,0.546894 0.042242,1.036593 0.093871,1.088223 0.051629,0.05163 0.9821377,0.07705 2.0677966,0.0565 l 1.9739257,-0.03737 z m 18.0620935,-6 V 19.986441 H 16.027119 5.9254237 v 1.016949 1.016949 H 16.027119 26.128814 Z m -18.0338987,-4 V 15.918644 H 5.9932203 3.8915254 v 1.084746 1.084746 h 2.1016949 2.101695 z M 26.061017,11.037288 V 10.020339 L 15.99322,9.9855719 5.9254237,9.9508049 v 1.0864831 1.086483 L 15.99322,12.089004 26.061017,12.054237 Z M 8.0949153,6.9659599 V 5.8776824 L 6.0271186,5.9151124 3.959322,5.9525424 3.91972,7.0033898 3.880118,8.0542373 h 2.1073986 2.1073986 z"
     id="path6406"
     inkscape:connector-curvature="0" /></svg>