<?xml version="1.0" encoding="UTF-8" standalone="no"?>
<svg
   xmlns:dc="http://purl.org/dc/elements/1.1/"
   xmlns:cc="http://creativecommons.org/ns#"
   xmlns:rdf="http://www.w3.org/1999/02/22-rdf-syntax-ns#"
   xmlns:svg="http://www.w3.org/2000/svg"
   xmlns="http://www.w3.org/2000/svg"
   xmlns:sodipodi="http://sodipodi.sourceforge.net/DTD/sodipodi-0.dtd"
   xmlns:inkscape="http://www.inkscape.org/namespaces/inkscape"
   enable-background="new 0 0 32 32"
   height="32px"
   id="svg2"
   version="1.1"
   viewBox="0 0 32 32"
   width="32px"
   xml:space="preserve"
   sodipodi:docname="SurvUp-Settings.svg"
   inkscape:version="0.92.3 (2405546, 2018-03-11)"><metadata
     id="metadata126"><rdf:RDF><cc:Work
         rdf:about=""><dc:format>image/svg+xml</dc:format><dc:type
           rdf:resource="http://purl.org/dc/dcmitype/StillImage" /></cc:Work></rdf:RDF></metadata><defs
     id="defs124" /><sodipodi:namedview
     pagecolor="#ffffff"
     bordercolor="#666666"
     borderopacity="1"
     objecttolerance="10"
     gridtolerance="10"
     guidetolerance="10"
     inkscape:pageopacity="0"
     inkscape:pageshadow="2"
     inkscape:window-width="1920"
     inkscape:window-height="1019"
     id="namedview122"
     showgrid="false"
     inkscape:zoom="7.375"
     inkscape:cx="16"
     inkscape:cy="16"
     inkscape:window-x="0"
     inkscape:window-y="0"
     inkscape:window-maximized="1"
     inkscape:current-layer="svg2" /><g
     id="background"><rect
       fill="none"
       height="32"
       width="32"
       id="rect113" /></g><g
     id="server_x5F_settings"><path
       d="M30,17.349V12h-2v-2h2V2H2v8h2v2H2v8h2v2H2v8h15.349c1.545,1.248,3.51,1.999,5.651,2c4.971-0.002,8.998-4.029,9-9   C31.999,20.858,31.248,18.894,30,17.349z M14.059,22H6v-2h8.522C14.297,20.638,14.135,21.306,14.059,22z M26,12H6v-2h20V12z M4,6h4   v2H4V6z M4,16h4v2H4V16z M8,28H4v-2h4V28z M23,29.883c-3.801-0.009-6.876-3.084-6.885-6.883c0.009-3.801,3.084-6.876,6.885-6.885   c3.799,0.009,6.874,3.084,6.883,6.885C29.874,26.799,26.799,29.874,23,29.883z"
       id="path116" /><path
       d="M28,24v-2.001h-1.663c-0.063-0.212-0.145-0.413-0.245-0.606l1.187-1.187l-1.416-1.415l-1.165,1.166   c-0.22-0.123-0.452-0.221-0.697-0.294V18h-2v1.662c-0.229,0.068-0.446,0.158-0.652,0.27l-1.141-1.14l-1.415,1.415l1.14,1.14   c-0.112,0.207-0.202,0.424-0.271,0.653H18v2h1.662c0.073,0.246,0.172,0.479,0.295,0.698l-1.165,1.163l1.413,1.416l1.188-1.187   c0.192,0.101,0.394,0.182,0.605,0.245V28H24v-1.665c0.229-0.068,0.445-0.158,0.651-0.27l1.212,1.212l1.414-1.416l-1.212-1.21   c0.111-0.206,0.201-0.423,0.27-0.651H28z M22.999,24.499c-0.829-0.002-1.498-0.671-1.501-1.5c0.003-0.829,0.672-1.498,1.501-1.501   c0.829,0.003,1.498,0.672,1.5,1.501C24.497,23.828,23.828,24.497,22.999,24.499z"
       id="path118" /></g><path
     style="fill:#ffffff;stroke-width:0.13559322"
     d="m 21.081694,31.713751 c -1.034569,-0.2248 -2.278998,-0.77209 -3.127842,-1.375595 l -0.637731,-0.45341 H 9.6885691 2.0610169 V 25.952542 22.020339 H 3.0779661 4.0949153 V 21.00339 19.986441 H 3.0779661 2.0610169 V 16.054237 12.122034 H 3.0779661 4.0949153 V 11.037288 9.9525424 H 3.0779661 2.0610169 V 6.020339 2.0881356 H 16.027119 29.99322 V 6.020339 9.9525424 h -1.016949 -1.016949 v 1.0847456 1.084746 h 1.016949 1.016949 v 2.653535 2.653536 l 0.415946,0.604557 c 0.977786,1.421161 1.477252,3.111194 1.480355,5.009036 0.0025,1.501853 -0.237635,2.492754 -0.967868,3.99459 -1.102488,2.267435 -3.534457,4.159427 -6.013178,4.678054 -1.163161,0.243371 -2.702376,0.242731 -3.826781,-0.0016 z m 3.768272,-2.045328 c 3.969383,-1.165916 6.063012,-5.324426 4.608212,-9.15315 -1.071325,-2.819495 -3.988272,-4.660882 -6.990381,-4.412832 -3.123632,0.258089 -5.601836,2.460032 -6.261005,5.563049 -0.342247,1.61112 -0.0292,3.430918 0.847542,4.926972 0.798922,1.363256 2.50784,2.646521 4.125327,3.097798 0.88385,0.246594 2.795143,0.235222 3.670305,-0.02184 z M 8.0271186,27.037288 V 25.952542 H 5.9932203 3.959322 v 1.084746 1.084746 h 2.0338983 2.0338983 z m 6.2147084,-5.728813 c 0.08275,-0.391526 0.189814,-0.849153 0.237923,-1.01695 l 0.08747,-0.305084 H 10.280221 5.9932203 v 1.016949 1.016949 h 4.0490777 4.049078 z M 8.0271186,17.00339 V 15.918644 H 5.9932203 3.959322 v 1.084746 1.084746 H 5.9932203 8.0271186 Z M 26.061017,11.037288 V 9.9525424 H 16.027119 5.9932203 v 1.0847456 1.084746 H 16.027119 26.061017 Z M 8.0271186,6.9694915 V 5.8847458 H 5.9932203 3.959322 v 1.0847457 1.0847458 h 2.0338983 2.0338983 z"
     id="path6422"
     inkscape:connector-curvature="0" /><path
     style="fill:#ffffff;stroke-width:0.13559322"
     d="m 21.99322,27.107668 c 0,-0.831627 -0.01878,-0.883485 -0.349963,-0.966608 -0.287576,-0.07218 -0.451649,0.01196 -0.920369,0.471976 l -0.570405,0.55981 -0.637632,-0.647366 -0.637631,-0.647366 0.557501,-0.557502 c 0.503135,-0.503134 0.544931,-0.595372 0.428595,-0.945836 -0.121058,-0.364689 -0.179854,-0.390793 -0.965603,-0.428704 l -0.836696,-0.04037 v -0.942683 -0.942682 h 0.816466 c 0.743699,0 0.830515,-0.03083 0.974091,-0.345949 0.144162,-0.316401 0.109283,-0.39429 -0.408365,-0.911938 l -0.565989,-0.56599 0.637631,-0.647366 0.637632,-0.647366 0.585515,0.57464 c 0.570266,0.559674 0.595118,0.569267 0.954267,0.368352 0.324568,-0.181571 0.373624,-0.299166 0.409417,-0.981437 l 0.04067,-0.775149 h 0.874589 0.874589 v 0.797109 c 0,0.761439 0.01858,0.804805 0.415222,0.969099 0.397794,0.164772 0.439267,0.148391 0.988165,-0.390312 l 0.572944,-0.562302 0.637632,0.647366 0.637631,0.647366 -0.549517,0.549517 c -0.459441,0.459441 -0.534607,0.608925 -0.458555,0.911939 0.08673,0.345543 0.131322,0.362421 0.957618,0.362421 h 0.866657 v 0.942682 0.942683 l -0.84473,0.04037 c -0.78485,0.03751 -0.854026,0.06691 -0.97587,0.414793 -0.11777,0.336249 -0.07312,0.433542 0.437933,0.954267 l 0.569073,0.579843 -0.649221,0.639458 -0.649221,0.639459 -0.583266,-0.594305 c -0.54421,-0.554509 -0.60969,-0.58433 -0.97788,-0.445354 -0.378061,0.142702 -0.394615,0.184675 -0.394615,1.000579 v 0.851629 H 22.942373 21.99322 Z m 2.053376,-3.004295 c 1.024051,-0.981103 0.36482,-2.625407 -1.052573,-2.625407 -1.596432,0 -2.124226,2.176842 -0.702757,2.898461 0.589529,0.299279 1.268125,0.193718 1.75533,-0.273054 z"
     id="path6424"
     inkscape:connector-curvature="0" /></svg>