<?xml version="1.0" encoding="UTF-8" standalone="no"?>
<svg
   xmlns:dc="http://purl.org/dc/elements/1.1/"
   xmlns:cc="http://creativecommons.org/ns#"
   xmlns:rdf="http://www.w3.org/1999/02/22-rdf-syntax-ns#"
   xmlns:svg="http://www.w3.org/2000/svg"
   xmlns="http://www.w3.org/2000/svg"
   xmlns:sodipodi="http://sodipodi.sourceforge.net/DTD/sodipodi-0.dtd"
   xmlns:inkscape="http://www.inkscape.org/namespaces/inkscape"
   enable-background="new 0 0 32 32"
   height="32px"
   id="svg2"
   version="1.1"
   viewBox="0 0 32 32"
   width="32px"
   xml:space="preserve"
   sodipodi:docname="SurvUp-Close.svg"
   inkscape:version="0.92.3 (2405546, 2018-03-11)"><metadata
     id="metadata15"><rdf:RDF><cc:Work
         rdf:about=""><dc:format>image/svg+xml</dc:format><dc:type
           rdf:resource="http://purl.org/dc/dcmitype/StillImage" /></cc:Work></rdf:RDF></metadata><defs
     id="defs13" /><sodipodi:namedview
     pagecolor="#ffffff"
     bordercolor="#666666"
     borderopacity="1"
     objecttolerance="10"
     gridtolerance="10"
     guidetolerance="10"
     inkscape:pageopacity="0"
     inkscape:pageshadow="2"
     inkscape:window-width="1920"
     inkscape:window-height="1019"
     id="namedview11"
     showgrid="false"
     inkscape:zoom="7.375"
     inkscape:cx="13.966102"
     inkscape:cy="16"
     inkscape:window-x="0"
     inkscape:window-y="0"
     inkscape:window-maximized="1"
     inkscape:current-layer="svg2" /><g
     id="background"><rect
       fill="none"
       height="32"
       width="32"
       id="rect2" /></g><g
     id="server_x5F_cancel"><path
       d="M30,17.349V12h-2v-2h2V2H2v8h2v2H2v8h2v2H2v8h15.349c1.545,1.248,3.51,1.999,5.651,2c4.971-0.002,8.998-4.029,9-9   C31.999,20.858,31.248,18.894,30,17.349z M14.059,22H6v-2h8.522C14.297,20.638,14.135,21.306,14.059,22z M26,12H6v-2h20V12z M4,6h4   v2H4V6z M4,16h4v2H4V16z M8,28H4v-2h4V28z M23,29.883c-3.801-0.009-6.876-3.084-6.885-6.883c0.009-3.801,3.084-6.876,6.885-6.885   c3.799,0.009,6.874,3.084,6.883,6.885C29.874,26.799,26.799,29.874,23,29.883z"
       id="path5" /><polygon
       points="19,25 21,27 23,25 25,27 27,25 25,23 27,21 25,19 23,21 21,19 19,21 21,23  "
       id="polygon7" /></g><path
     style="fill:#ffffff;stroke-width:0.13559322"
     d="M 20.922034,31.659596 C 19.705856,31.353249 19.084259,31.083622 18.065123,30.420365 L 17.24211,29.884746 H 9.624445 2.0067797 V 25.952542 22.020339 H 3.0237288 4.040678 V 21.00339 19.986441 H 3.0237288 2.0067797 V 16.054237 12.122034 H 3.0237288 4.040678 V 11.037288 9.9525424 H 3.0237288 2.0067797 V 6.020339 2.0881356 H 15.972881 29.938983 V 6.020339 9.9525424 h -1.016949 -1.016949 v 1.0847456 1.084746 h 1.016949 1.016949 v 2.600716 2.600716 l 0.535923,0.823013 c 2.46244,3.781548 1.709186,8.763941 -1.767787,11.693021 -2.11736,1.783709 -5.131751,2.488453 -7.785085,1.820096 z m 3.930115,-1.983393 c 2.351444,-0.612474 4.303717,-2.656471 4.882689,-5.112099 0.978599,-4.150587 -2.02467,-8.18567 -6.30433,-8.470264 -3.258692,-0.216701 -6.281059,1.959706 -7.125065,5.130759 -0.282998,1.063264 -0.250776,2.762459 0.07222,3.808186 0.657813,2.129752 2.425848,3.899875 4.58474,4.590157 0.973471,0.311257 2.803055,0.336308 3.889749,0.05326 z M 8.0802799,27.00339 8.1198819,25.952542 H 6.0124833 3.9050847 v 1.088278 1.088277 l 2.0677967,-0.03743 2.0677966,-0.03743 z m 6.0464461,-5.152543 c 0.024,-0.09322 0.134031,-0.550847 0.24451,-1.016949 l 0.20087,-0.847457 H 10.255545 5.9389831 v 1.016949 1.016949 h 4.0720519 c 3.143972,0 4.081998,-0.03863 4.115691,-0.169492 z M 8.1084746,17.00339 V 15.918644 H 6.0067797 3.9050847 v 1.084746 1.084746 h 2.101695 2.1016949 z M 26.00678,11.037288 V 9.9525424 H 15.972881 5.9389831 v 1.0847456 1.084746 H 15.972881 26.00678 Z M 8.0802799,7.0033898 8.040678,5.9525424 5.9728814,5.9151124 3.9050847,5.8776824 v 1.0882775 1.0882774 h 2.1073986 2.1073986 z"
     id="path4585"
     inkscape:connector-curvature="0" /><path
     style="fill:#ffffff;stroke-width:0.13559322"
     d="m 20.108697,25.952767 -0.942102,-0.949377 0.911618,-0.918657 c 0.50139,-0.505262 0.911618,-0.976708 0.911618,-1.047659 0,-0.07095 -0.42722,-0.559092 -0.949377,-1.084757 l -0.949377,-0.955756 0.949499,-0.942223 0.949499,-0.942223 1.016827,1.01004 1.016827,1.010041 1.016827,-1.010041 1.016826,-1.01004 0.949594,0.942317 0.949593,0.942317 -1.016354,1.022351 -1.016356,1.022352 0.979731,0.97973 0.979731,0.979731 -0.943331,0.950615 -0.943331,0.950615 -0.986465,-0.979881 -0.986465,-0.979882 -0.986465,0.979882 -0.986465,0.979881 z"
     id="path4587"
     inkscape:connector-curvature="0" /></svg>